HIERARCHY
ROOT Pelvis
{
	OFFSET 0.000000 0.941512 0.000000
	CHANNELS 6 Xposition Yposition Zposition Zrotation Yrotation Xrotation 
	JOINT Pelvis_L_Hip
	{
		OFFSET 0.000000 0.000000 0.000000
		CHANNELS 3 Zrotation Yrotation Xrotation
		JOINT L_Hip
		{
			OFFSET 0.062321 -0.080322 -0.016990
			CHANNELS 3 Zrotation Yrotation Xrotation
			JOINT L_Knee
			{
				OFFSET 0.093051 -0.381305 -0.029784
				CHANNELS 3 Zrotation Yrotation Xrotation
				JOINT L_Ankle
				{
					OFFSET -0.010371 -0.431000 -0.033614
					CHANNELS 3 Zrotation Yrotation Xrotation
					End Site #name: L_Foot
					{
						OFFSET 0.069299 -0.038670 0.119418
					}
				}
			}
		}
	}
	JOINT Pelvis_R_Hip
	{
		OFFSET 0.000000 0.000000 0.000000
		CHANNELS 3 Zrotation Yrotation Xrotation
		JOINT R_Hip
		{
			OFFSET -0.055334 -0.094904 -0.002373
			CHANNELS 3 Zrotation Yrotation Xrotation
			JOINT R_Knee
			{
				OFFSET -0.064207 -0.384370 -0.019592
				CHANNELS 3 Zrotation Yrotation Xrotation
				JOINT R_Ankle
				{
					OFFSET 0.025418 -0.419734 -0.065953
					CHANNELS 3 Zrotation Yrotation Xrotation
					End Site #name: R_Foot
					{
						OFFSET -0.057233 -0.039888 0.132134
					}
				}
			}
		}
	}
	JOINT Pelvis_Spine1
	{
		OFFSET 0.000000 0.000000 0.000000
		CHANNELS 3 Zrotation Yrotation Xrotation
		JOINT Spine1
		{
			OFFSET -0.005562 0.124093 -0.043360
			CHANNELS 3 Zrotation Yrotation Xrotation
			JOINT Spine2
			{
				OFFSET 0.012244 0.139499 0.029894
				CHANNELS 3 Zrotation Yrotation Xrotation
				JOINT Spine3
				{
					OFFSET -0.002556 0.056561 0.009225
					CHANNELS 3 Zrotation Yrotation Xrotation
					JOINT Spine3_Neck
					{
						OFFSET 0.000000 0.000000 0.000000
						CHANNELS 3 Zrotation Yrotation Xrotation
						JOINT Neck
						{
							OFFSET -0.005205 0.217920 -0.024551
							CHANNELS 3 Zrotation Yrotation Xrotation
							End Site #name: Head
							{
								OFFSET 0.002365 0.091850 0.046637
							}
						}
					}
					JOINT Spine3_L_Collar
					{
						OFFSET 0.000000 0.000000 0.000000
						CHANNELS 3 Zrotation Yrotation Xrotation
						JOINT L_Collar
						{
							OFFSET 0.072225 0.116603 -0.009480
							CHANNELS 3 Zrotation Yrotation Xrotation
							JOINT L_Shoulder
							{
								OFFSET 0.115937 -0.058643 -0.021018
								CHANNELS 3 Zrotation Yrotation Xrotation
								JOINT L_Elbow
								{
									OFFSET 0.021994 -0.254722 -0.024492
									CHANNELS 3 Zrotation Yrotation Xrotation
									End Site #name: L_Wrist
									{
										OFFSET 0.048810 -0.240214 0.103329
									}
								}
							}
						}
					}
					JOINT Spine3_R_Collar
					{
						OFFSET 0.000000 0.000000 0.000000
						CHANNELS 3 Zrotation Yrotation Xrotation
						JOINT R_Collar
						{
							OFFSET -0.073372 0.120704 -0.024611
							CHANNELS 3 Zrotation Yrotation Xrotation
							JOINT R_Shoulder
							{
								OFFSET -0.108089 -0.054969 -0.020504
								CHANNELS 3 Zrotation Yrotation Xrotation
								JOINT R_Elbow
								{
									OFFSET -0.033684 -0.260739 0.009889
									CHANNELS 3 Zrotation Yrotation Xrotation
									End Site #name: R_Wrist
									{
										OFFSET -0.067980 -0.232763 0.118463
									}
								}
							}
						}
					}
				}
			}
		}
	}
}
MOTION
Frames: 16
Frame Time: 0.041667
-0.346199 0.949538 1.311634 -6.962693 12.977830 1.759550 0.000000 0.000000 0.000000 -13.952490 -1.132578 -5.919251 22.688664 1.786935 -19.771713 107.170102 21.022899 166.592119 0.000000 0.000000 0.000000 26.146531 -3.316837 2.977975 -31.426383 -18.950566 -54.577767 -48.707428 -36.871570 -173.156810 0.000000 0.000000 0.000000 12.636108 2.796628 -32.906323 -12.199294 1.996400 0.460556 10.575151 8.536154 31.991563 0.000000 0.000000 0.000000 -12.383062 -18.792317 -103.264553 0.000000 0.000000 0.000000 -122.748647 38.658957 -30.317533 79.243904 22.565289 -51.292368 40.704466 9.094211 35.440014 0.000000 0.000000 0.000000 149.813311 47.737623 -0.464741 -127.556231 0.927816 3.719145 19.603850 -6.533996 36.256180 
-0.354157 0.946630 1.275096 -6.127040 12.233334 2.909757 0.000000 0.000000 0.000000 -15.165995 -4.176632 -13.422574 24.118831 0.343802 -11.594116 96.597803 23.377560 170.055659 0.000000 0.000000 0.000000 25.784455 -5.577248 8.191397 -32.543497 -15.273887 -47.137290 -61.922631 -30.332446 -170.055377 0.000000 0.000000 0.000000 11.047772 3.034962 -35.378865 -11.885918 2.012530 0.828809 11.009211 9.386309 32.537851 0.000000 0.000000 0.000000 -13.840659 -19.156836 -102.233829 0.000000 0.000000 0.000000 -120.902660 40.034209 -30.600016 75.698445 23.035751 -54.516760 45.154582 11.361506 26.857474 0.000000 0.000000 0.000000 151.828940 55.026740 10.241070 -125.150313 20.441899 17.380990 24.195003 -3.056879 30.530668 
-0.356877 0.935726 1.231996 -5.094781 10.710648 3.187856 0.000000 0.000000 0.000000 -15.519667 -6.285335 -18.347353 24.409425 -0.578866 -7.046382 84.965930 25.961086 175.565297 0.000000 0.000000 0.000000 23.532895 -6.994109 12.622684 -30.489348 -9.619680 -37.149255 -98.995292 -11.389919 -176.207929 0.000000 0.000000 0.000000 10.599089 3.155338 -35.595550 -12.599137 2.129882 0.823447 10.714268 9.445757 32.820809 0.000000 0.000000 0.000000 -13.417674 -17.983724 -102.526915 0.000000 0.000000 0.000000 -121.755387 37.729737 -30.475815 76.465266 24.221813 -55.640294 47.759711 13.245338 21.147447 0.000000 0.000000 0.000000 153.897810 56.631220 15.749735 -123.877602 25.898298 21.567286 25.090600 -2.197942 29.223450 
-0.358189 0.924122 1.186751 -5.659272 9.081725 3.451980 0.000000 0.000000 0.000000 -13.312622 -7.531470 -22.178032 23.710766 -0.807582 -5.598444 77.644684 27.756752 -179.432478 0.000000 0.000000 0.000000 23.042639 -7.789169 14.912700 -27.650456 -4.028733 -24.703507 -101.280409 -10.363266 -177.226847 0.000000 0.000000 0.000000 12.154717 3.400420 -35.338580 -13.608180 2.072746 -0.506425 9.893617 8.388317 33.632908 0.000000 0.000000 0.000000 -11.153655 -15.328803 -103.812033 0.000000 0.000000 0.000000 -123.620299 31.920672 -29.170746 83.424178 24.867071 -51.737794 50.025495 13.512465 22.001682 0.000000 0.000000 0.000000 152.756182 54.753349 16.019210 -125.131395 23.757676 19.818153 24.423037 -2.744064 29.986159 
-0.356958 0.911722 1.137188 -6.621567 6.874437 3.445944 0.000000 0.000000 0.000000 -11.697816 -7.855039 -23.913549 23.928807 -0.141503 -8.327960 90.459916 21.546602 -178.321613 0.000000 0.000000 0.000000 22.762419 -8.307425 16.632342 -24.102320 -0.549748 -14.938905 -105.818601 -10.359646 178.555710 0.000000 0.000000 0.000000 14.267524 3.628026 -34.436574 -13.987661 2.013587 -1.282296 7.938215 6.749840 33.724659 0.000000 0.000000 0.000000 -7.597238 -11.143038 -105.516655 0.000000 0.000000 0.000000 -126.351121 24.171073 -27.600195 92.059312 24.542623 -45.727686 50.752779 12.457627 26.741257 0.000000 0.000000 0.000000 150.695027 48.861985 12.114292 -129.450972 12.558269 11.289090 21.454369 -4.938659 33.314001 
-0.353228 0.900876 1.081873 -7.299949 3.943189 3.803875 0.000000 0.000000 0.000000 -11.298420 -8.099467 -25.204211 25.302579 1.070750 -13.095926 113.395297 12.537115 175.924689 0.000000 0.000000 0.000000 22.171950 -8.539119 18.102930 -22.285014 -0.382531 -14.694127 -118.351901 -10.468857 169.657854 0.000000 0.000000 0.000000 15.907992 3.838827 -33.508360 -13.908435 2.001911 -1.460052 5.376874 4.582497 33.248672 0.000000 0.000000 0.000000 -3.234945 -5.416996 -106.835873 0.000000 0.000000 0.000000 -129.225046 15.081098 -25.952014 100.009209 22.970879 -39.051651 48.838535 10.648824 33.278790 0.000000 0.000000 0.000000 148.658847 38.817538 5.328061 -129.362389 -7.473507 -1.784729 14.664225 -7.695332 37.363306 
-0.346495 0.895250 1.019574 -7.030990 1.727822 4.337155 0.000000 0.000000 0.000000 -12.667694 -8.734161 -26.690475 26.806341 2.632289 -18.529844 120.813556 12.095393 172.455798 0.000000 0.000000 0.000000 21.294653 -8.115486 18.064732 -22.751981 -1.751623 -20.147859 -89.864728 -19.992303 175.248140 0.000000 0.000000 0.000000 15.616913 3.788542 -32.460958 -13.857343 2.036094 -1.353917 3.493366 2.549933 32.590673 0.000000 0.000000 0.000000 0.637485 -0.414682 -107.248800 0.000000 0.000000 0.000000 -129.948081 6.496182 -23.289258 105.298037 19.661885 -32.795498 43.982377 8.709538 40.639235 0.000000 0.000000 0.000000 146.326085 27.688512 -2.822151 -117.939685 -25.828647 -17.786076 6.856855 -9.014740 38.361279 
-0.336677 0.898627 0.954238 -5.646023 2.165443 4.456245 0.000000 0.000000 0.000000 -17.461938 -8.925799 -24.970110 27.898397 5.437397 -28.823438 107.071484 21.685575 173.729609 0.000000 0.000000 0.000000 20.530943 -7.418447 16.672257 -24.653846 -3.031942 -24.302269 -43.662834 -37.696124 171.380014 0.000000 0.000000 0.000000 12.657572 3.354374 -31.432458 -13.600630 2.127754 -0.555343 3.199546 1.724671 31.708151 0.000000 0.000000 0.000000 2.428293 0.777477 -106.929169 0.000000 0.000000 0.000000 -129.155736 2.642040 -20.583042 105.754621 18.834056 -31.764832 35.105622 7.805465 45.270080 0.000000 0.000000 0.000000 144.790987 20.583907 -10.118533 -104.422112 -33.372120 -30.611766 2.420080 -9.294755 37.408086 
-0.329422 0.909453 0.894904 -5.122209 4.582770 4.638472 0.000000 0.000000 0.000000 -21.562220 -6.758851 -18.456778 24.843982 8.230632 -44.956962 80.684954 36.336991 170.968239 0.000000 0.000000 0.000000 21.721094 -6.317780 12.802937 -27.572778 -3.536709 -24.521727 -26.096233 -43.440479 166.948678 0.000000 0.000000 0.000000 10.084003 3.003282 -31.167593 -12.905457 1.960323 -0.788660 3.620432 1.468299 32.072312 0.000000 0.000000 0.000000 2.210935 -0.859321 -107.005673 0.000000 0.000000 0.000000 -129.472830 2.037331 -18.360359 106.210993 20.096577 -33.442169 22.570038 7.741183 49.516754 0.000000 0.000000 0.000000 144.885728 16.166296 -17.078979 -94.128797 -36.308177 -39.960824 -1.738415 -9.684781 36.794737 
-0.321161 0.924575 0.844260 -4.477226 6.508920 4.740381 0.000000 0.000000 0.000000 -23.067246 -2.371604 -8.833858 18.809610 8.401348 -61.186098 66.384509 41.325667 170.555755 0.000000 0.000000 0.000000 21.572964 -4.392714 7.808941 -29.201938 -2.924566 -21.782167 -28.277086 -44.156718 170.934674 0.000000 0.000000 0.000000 8.473547 2.771756 -30.978894 -12.481410 2.040737 0.201878 3.099710 0.900300 31.100937 0.000000 0.000000 0.000000 2.760534 -1.428122 -105.792750 0.000000 0.000000 0.000000 -130.289843 0.395861 -16.088402 109.499214 18.874557 -31.645224 10.718392 8.456155 52.816308 0.000000 0.000000 0.000000 146.013989 9.047165 -25.590575 -78.851627 -36.082991 -51.625828 -9.350912 -10.213700 33.904558 
-0.316075 0.939500 0.799176 -5.258523 6.452292 5.315480 0.000000 0.000000 0.000000 -21.038481 1.329181 -0.769933 15.971665 8.296545 -69.654359 62.844255 41.579605 175.273859 0.000000 0.000000 0.000000 21.905706 -2.429023 2.628535 -29.551643 -1.866158 -18.711724 -26.146521 -44.641193 172.084591 0.000000 0.000000 0.000000 9.752996 2.818295 -30.805660 -12.608221 1.843595 -1.150717 1.082827 -1.553550 31.773844 0.000000 0.000000 0.000000 6.772814 2.313537 -104.638543 0.000000 0.000000 0.000000 -131.443379 -8.173282 -11.775197 118.301554 6.956619 -19.869486 -2.710870 9.550645 53.605063 0.000000 0.000000 0.000000 146.497400 -2.944316 -34.352986 -63.027504 -30.519624 -59.429002 -17.174591 -10.809771 27.154657 
-0.309457 0.950297 0.758027 -6.103003 9.063036 5.025389 0.000000 0.000000 0.000000 -18.071207 4.179854 6.877186 14.856370 6.660305 -70.796515 68.648339 38.027656 177.770002 0.000000 0.000000 0.000000 22.004692 -1.187271 -0.804711 -29.512529 -1.299600 -16.498764 -16.021499 -48.733784 170.437301 0.000000 0.000000 0.000000 10.868997 2.556138 -29.664773 -13.017503 1.529000 -3.241639 0.626522 -2.808374 33.385286 0.000000 0.000000 0.000000 8.857924 2.411579 -104.530235 0.000000 0.000000 0.000000 -132.926992 -13.472459 -6.181383 120.297957 -6.520866 -10.693196 -10.211956 9.473669 51.331177 0.000000 0.000000 0.000000 146.833821 -7.470765 -39.964794 -58.729078 -27.401353 -58.791535 -22.410571 -11.696534 22.175205 
-0.309520 0.956865 0.716485 -6.124390 11.141089 6.300098 0.000000 0.000000 0.000000 -15.863623 5.003736 10.031552 16.177498 6.001106 -65.184763 82.935416 30.792845 177.227429 0.000000 0.000000 0.000000 20.946278 0.758807 -6.108168 -28.623700 -0.555956 -14.044404 -14.516414 -50.575767 170.978746 0.000000 0.000000 0.000000 9.586733 2.597086 -31.426822 -11.965945 1.946446 0.279278 1.354182 -2.133153 31.022096 0.000000 0.000000 0.000000 7.758587 0.160176 -104.658717 0.000000 0.000000 0.000000 -133.587544 -12.176342 -4.715413 118.443227 -7.036437 -10.596208 -7.272315 9.583240 52.870925 0.000000 0.000000 0.000000 148.924335 -7.988515 -43.835751 -57.831544 -27.007029 -58.876464 -25.593703 -12.471161 19.578692 
-0.308149 0.962609 0.678911 -5.831520 13.077757 7.011120 0.000000 0.000000 0.000000 -13.809104 5.111542 11.508563 17.436817 5.068293 -55.760513 103.294584 23.980369 169.849305 0.000000 0.000000 0.000000 19.225544 2.218866 -10.518077 -27.870597 0.326110 -11.147699 1.406316 -54.185421 163.344439 0.000000 0.000000 0.000000 8.762613 2.407292 -31.146711 -12.006083 1.911174 0.083003 2.237298 -1.769639 31.097868 0.000000 0.000000 0.000000 6.840439 -1.799191 -104.579389 0.000000 0.000000 0.000000 -133.740491 -11.046491 -3.506740 117.645675 -7.825826 -10.493203 -5.571504 9.784249 54.861734 0.000000 0.000000 0.000000 149.222867 -7.722789 -45.893877 -60.395997 -27.578578 -56.530562 -26.817668 -12.806138 20.041880 
-0.307685 0.964574 0.642972 -5.221314 14.768724 7.572859 0.000000 0.000000 0.000000 -11.978799 4.492717 10.708289 18.060386 3.857564 -43.919820 111.953604 23.165838 163.860490 0.000000 0.000000 0.000000 17.307633 3.199499 -14.060675 -27.164089 0.909633 -9.109170 21.671821 -55.570643 150.491059 0.000000 0.000000 0.000000 7.442200 2.241544 -31.158221 -11.405822 2.010385 1.385896 3.016545 -0.798484 30.483351 0.000000 0.000000 0.000000 4.787000 -4.468064 -103.839800 0.000000 0.000000 0.000000 -133.750249 -6.513880 -4.860574 118.130830 -2.246380 -15.145124 -1.119959 9.711971 56.979829 0.000000 0.000000 0.000000 150.804760 -6.971001 -48.468689 -60.829702 -28.319424 -57.318844 -26.489913 -12.726130 20.447845 
-0.310000 0.963582 0.608809 -4.442562 16.104687 7.823814 0.000000 0.000000 0.000000 -10.396877 3.673483 8.942874 18.024316 2.818022 -34.239978 103.994662 26.198292 162.624600 0.000000 0.000000 0.000000 16.162981 3.599212 -15.871391 -27.477189 0.732253 -9.467434 28.644777 -56.106474 146.507319 0.000000 0.000000 0.000000 6.554205 2.079915 -30.588424 -11.183268 2.052566 1.960191 3.860755 0.172923 30.746974 0.000000 0.000000 0.000000 2.370032 -7.176639 -103.765717 0.000000 0.000000 0.000000 -133.163974 -2.204259 -6.305808 118.257855 3.284645 -19.786297 2.559809 9.402819 57.642934 0.000000 0.000000 0.000000 151.577528 -4.762628 -49.108645 -62.677797 -29.648886 -57.527888 -25.748935 -12.545029 21.911749 
